<svg width="32" height="33" viewBox="0 0 32 33" fill="none" xmlns="http://www.w3.org/2000/svg">
<g clip-path="url(#clip0_3686_2432)">
<path fill-rule="evenodd" clip-rule="evenodd" d="M25.0749 2.27051H6.92512C4.20505 2.27051 2 4.47556 2 7.19563V25.3454C2 28.0655 4.20505 30.2705 6.92512 30.2705H25.0749C27.795 30.2705 30 28.0655 30 25.3454V7.19562C30 4.47556 27.795 2.27051 25.0749 2.27051ZM6.92512 0.270508C3.10048 0.270508 0 3.37099 0 7.19563V25.3454C0 29.17 3.10048 32.2705 6.92512 32.2705H25.0749C28.8995 32.2705 32 29.17 32 25.3454V7.19562C32 3.37099 28.8995 0.270508 25.0749 0.270508H6.92512Z" fill="black"/>
<path d="M17.0016 22.2705C16.9486 22.2705 16.9048 22.2291 16.9018 22.1761L16.8685 21.5841C16.8656 21.5328 16.9021 21.4876 16.9529 21.4797L18.0187 21.3136C18.0912 21.3023 18.127 21.2194 18.0831 21.1605C18.0011 21.0502 17.9078 20.9364 17.8033 20.8191C17.6721 20.6419 17.5119 20.4579 17.3224 20.2671L14.0078 16.7415C13.9889 16.7214 13.9625 16.71 13.9349 16.71H13.1601C13.1049 16.71 13.0601 16.6653 13.0601 16.61V16.0319C13.0601 15.986 13.0915 15.9459 13.1361 15.9349L14.1924 15.6739C14.2096 15.6697 14.2253 15.661 14.238 15.6487L18.5841 11.4458C18.6421 11.3897 18.6133 11.2916 18.5342 11.2758L17.4732 11.0643C17.4243 11.0546 17.3901 11.0104 17.3929 10.9606L17.4264 10.3649C17.4294 10.3119 17.4732 10.2705 17.5262 10.2705H21.5555C21.6086 10.2705 21.6525 10.3121 21.6553 10.3652L21.6892 10.9985C21.6919 11.0495 21.6557 11.0944 21.6053 11.1025L20.4549 11.288C20.4362 11.2911 20.4187 11.2993 20.4045 11.3119L15.3516 15.7828C15.2832 15.8433 15.1762 15.788 15.1859 15.6972L15.2012 15.5541C15.2102 15.4695 15.314 15.4341 15.3728 15.4955L19.3989 19.6947C19.6466 19.94 19.8579 20.1649 20.0328 20.3693C20.2222 20.5601 20.3898 20.7305 20.5355 20.8804C20.6719 21.0079 20.7892 21.1176 20.8873 21.2093C20.9003 21.2215 20.9163 21.23 20.9337 21.2339L21.9219 21.4557C21.9676 21.466 22 21.5065 22 21.5533V22.1705C22 22.2257 21.9552 22.2705 21.9 22.2705H17.0016ZM10.1794 22.2705C10.1274 22.2705 10.0841 22.2307 10.0797 22.1789L10.0293 21.5814C10.025 21.5312 10.0587 21.4858 10.1079 21.4752L11.2977 21.2198C11.3332 21.2122 11.3618 21.186 11.3679 21.1502C11.3908 21.0168 11.4084 20.736 11.4208 20.308C11.4353 19.8037 11.4426 19.1019 11.4426 18.2024V14.3591C11.4426 13.7458 11.4353 13.2279 11.4208 12.8054C11.4208 12.3693 11.4135 12.0286 11.3989 11.7833C11.3989 11.5866 11.3896 11.4513 11.3708 11.3772C11.3636 11.3486 11.3385 11.33 11.3096 11.3239L10.0864 11.0656C10.0371 11.0552 10.0032 11.0096 10.0074 10.9593L10.0579 10.3621C10.0622 10.3103 10.1055 10.2705 10.1575 10.2705H14.6268C14.6798 10.2705 14.7237 10.3119 14.7266 10.3649L14.7602 10.9619C14.763 11.0111 14.7295 11.055 14.6814 11.0653L13.4696 11.3254C13.4452 11.3306 13.4234 11.3449 13.4147 11.3682C13.3912 11.4311 13.3677 11.5558 13.3443 11.7424C13.3297 11.9741 13.3151 12.308 13.3006 12.7441C13.3006 13.1666 13.3006 13.7049 13.3006 14.3591V18.2024C13.3006 19.1019 13.3078 19.8037 13.3224 20.308C13.3465 20.7245 13.3656 21.0016 13.3797 21.1391C13.384 21.1805 13.4148 21.2132 13.4554 21.222L14.6353 21.4752C14.6845 21.4858 14.7182 21.5312 14.7139 21.5814L14.6635 22.1789C14.6591 22.2307 14.6158 22.2705 14.5638 22.2705H10.1794Z" fill="black"/>
<path fill-rule="evenodd" clip-rule="evenodd" d="M17.4379 20.9992L16.8912 21.0845C16.6371 21.1241 16.4545 21.3499 16.469 21.6066L16.5023 22.1986C16.5172 22.4634 16.7363 22.6705 17.0015 22.6705H21.8999C22.176 22.6705 22.3999 22.4466 22.3999 22.1705V21.5533C22.3999 21.3193 22.2377 21.1166 22.0094 21.0654L21.1007 20.8614L20.8156 20.5947C20.6729 20.448 20.51 20.2823 20.3269 20.0979C20.146 19.8873 19.9313 19.6592 19.684 19.4141L16.0888 15.6644L20.6043 11.6691L21.6688 11.4974C21.9211 11.4567 22.1021 11.2323 22.0885 10.9771L22.0546 10.3438C22.0405 10.0784 21.8211 9.87048 21.5554 9.87048H17.5261C17.2609 9.87048 17.0418 10.0776 17.0269 10.3424L16.9934 10.9381C16.9794 11.1868 17.1506 11.4079 17.3948 11.4566L17.8944 11.5562L14.0179 15.3049L13.7004 15.3834V12.7515C13.7146 12.3278 13.7287 12.0042 13.7426 11.78C13.7477 11.7402 13.7526 11.7045 13.7574 11.6727L14.7652 11.4564C15.006 11.4047 15.1733 11.1853 15.1595 10.9394L15.1259 10.3424C15.111 10.0776 14.8919 9.87048 14.6267 9.87048H10.1574C9.89753 9.87048 9.681 10.0695 9.65914 10.3284L9.60873 10.9257C9.58751 11.177 9.75684 11.4048 10.0036 11.4569L10.9974 11.6668C10.9983 11.7015 10.9988 11.7403 10.9988 11.7833V11.7951L10.9995 11.807C11.0134 12.0406 11.0206 12.3722 11.0206 12.8054L11.0209 12.8192C11.0352 13.2356 11.0425 13.7485 11.0425 14.3591V18.2023C11.0425 19.1004 11.0352 19.7979 11.0208 20.2964C11.0135 20.5494 11.0045 20.7404 10.9949 20.8757L10.0239 21.0841C9.77784 21.1369 9.60939 21.3643 9.63056 21.615L9.681 22.2125C9.70285 22.4715 9.91939 22.6705 10.1792 22.6705H14.5637C14.8235 22.6705 15.0401 22.4715 15.0619 22.2125L15.1124 21.615C15.1335 21.3643 14.9651 21.1369 14.7191 21.0841L13.7592 20.878C13.7487 20.7343 13.7363 20.5391 13.722 20.2907C13.7077 19.7925 13.7004 19.097 13.7004 18.2023V17.11H13.8051L17.0309 20.5411L17.0384 20.5489C17.1956 20.7072 17.3283 20.8573 17.4379 20.9992ZM17.8975 20.9276C17.8989 20.9292 17.9003 20.9309 17.9017 20.9325C17.926 20.9613 17.9496 20.9898 17.9725 21.0181C18.0113 21.0662 18.0482 21.1137 18.083 21.1605C18.1268 21.2194 18.0911 21.3023 18.0185 21.3136L16.9528 21.4797C16.902 21.4876 16.8655 21.5328 16.8684 21.5841L16.9017 22.1761C16.9047 22.2291 16.9485 22.2705 17.0015 22.2705H21.8999C21.9551 22.2705 21.9999 22.2257 21.9999 22.1705V21.5533C21.9999 21.5065 21.9674 21.4659 21.9218 21.4557L20.9335 21.2339C20.9161 21.2299 20.9001 21.2215 20.8871 21.2093L20.5354 20.8804C20.3897 20.7304 20.2221 20.5601 20.0327 20.3693C19.8578 20.1649 19.6465 19.94 19.3988 19.6947L15.512 15.6407L20.4044 11.3118C20.4186 11.2993 20.436 11.291 20.4547 11.288L21.6051 11.1025C21.6556 11.0944 21.6918 11.0495 21.6891 10.9984L21.6552 10.3651C21.6524 10.3121 21.6085 10.2705 21.5554 10.2705H17.5261C17.4731 10.2705 17.4292 10.3119 17.4263 10.3649L17.3927 10.9606C17.3899 11.0103 17.4242 11.0546 17.473 11.0643L18.534 11.2758C18.6132 11.2915 18.642 11.3897 18.584 11.4457L14.2378 15.6487C14.2251 15.661 14.2094 15.6696 14.1923 15.6739L13.3004 15.8942V12.7441C13.315 12.308 13.3296 11.9741 13.3441 11.7424C13.3676 11.5558 13.3911 11.431 13.4146 11.3682C13.4233 11.3448 13.4451 11.3306 13.4695 11.3254L14.6812 11.0653C14.7294 11.0549 14.7629 11.0111 14.7601 10.9619L14.7265 10.3649C14.7235 10.3119 14.6797 10.2705 14.6267 10.2705H10.1574C10.1054 10.2705 10.0621 10.3103 10.0577 10.3621L10.0073 10.9593C10.0031 11.0096 10.0369 11.0551 10.0863 11.0656L11.3095 11.3239C11.3384 11.33 11.3635 11.3486 11.3707 11.3772C11.3894 11.4513 11.3988 11.5866 11.3988 11.7833C11.4134 12.0286 11.4206 12.3693 11.4206 12.8054C11.4352 13.2279 11.4425 13.7458 11.4425 14.3591V18.2023C11.4425 19.1018 11.4352 19.8037 11.4206 20.308C11.4083 20.736 11.3907 21.0167 11.3678 21.1502C11.3617 21.1859 11.3331 21.2122 11.2976 21.2198L10.1078 21.4752C10.0586 21.4857 10.0249 21.5312 10.0291 21.5814L10.0796 22.1789C10.084 22.2307 10.1273 22.2705 10.1792 22.2705H14.5637C14.6157 22.2705 14.659 22.2307 14.6633 22.1789L14.7138 21.5814C14.718 21.5312 14.6843 21.4857 14.6351 21.4752L13.4553 21.2219C13.4147 21.2132 13.3838 21.1804 13.3796 21.1391C13.3655 21.0016 13.3464 20.7245 13.3223 20.308C13.3077 19.8037 13.3004 19.1018 13.3004 18.2023V16.71H13.9348C13.9624 16.71 13.9887 16.7214 14.0076 16.7415L17.3223 20.2671C17.5117 20.4579 17.672 20.6419 17.8032 20.819C17.8357 20.8556 17.8672 20.8918 17.8975 20.9276Z" fill="black"/>
</g>
<defs>
<clipPath id="clip0_3686_2432">
<rect width="32" height="32" fill="white" transform="translate(0 0.270508)"/>
</clipPath>
</defs>
</svg>
