<svg width="103" height="24" viewBox="0 0 426 88" fill="none" xmlns="http://www.w3.org/2000/svg">
<path d="M0.203613 6.26286C0.203613 5.38741 0.37197 4.66348 0.708683 4.09106C1.07907 3.51865 1.93769 3.23245 3.28454 3.23245H11.9212C12.8977 3.23245 13.6048 3.53549 14.0425 4.14157C14.4802 4.71398 14.6991 5.3369 14.6991 6.01032V47.6786L36.9222 23.6373C37.3599 23.1995 37.7976 22.8628 38.2354 22.6271C38.7067 22.3914 39.2623 22.2736 39.9021 22.2736H51.4682C52.2089 22.2736 52.7645 22.4251 53.1349 22.7281C53.5053 23.0312 53.6905 23.4352 53.6905 23.9403C53.6905 24.277 53.64 24.58 53.539 24.8494C53.4379 25.1188 53.2527 25.4218 52.9834 25.7585L30.3058 49.4463L57.226 82.6799H57.1249C57.4953 83.0502 57.7479 83.4543 57.8826 83.892C58.0509 84.3298 58.1351 84.6833 58.1351 84.9527C58.1351 85.5251 57.9667 85.9123 57.63 86.1143C57.2933 86.3164 56.7882 86.4174 56.1148 86.4174H43.2355C42.2591 86.4174 41.3163 85.7103 40.4071 84.2961L20.861 58.8911L14.8001 65.2045V83.387C14.8001 83.69 14.7496 84.0267 14.6486 84.3971C14.5476 84.7338 14.3792 85.0537 14.1435 85.3567C13.9415 85.6598 13.6553 85.9123 13.2849 86.1143C12.9145 86.3164 12.46 86.4174 11.9212 86.4174H2.9815C2.47643 86.4174 2.05553 86.3164 1.71882 86.1143C1.38211 85.9123 1.0959 85.6598 0.860204 85.3567C0.624504 85.0537 0.456148 84.7507 0.355134 84.4476C0.25412 84.1109 0.203613 83.8415 0.203613 83.6395V6.26286Z" fill="#181818"/>
<path d="M67.3313 25.3545C67.3313 24.479 67.5838 23.7551 68.0889 23.1827C68.594 22.5766 69.3347 22.2736 70.3112 22.2736H78.6954C79.0657 22.2736 79.4361 22.3577 79.8065 22.5261C80.2106 22.6608 80.5641 22.8796 80.8672 23.1827C81.1702 23.4521 81.4227 23.7719 81.6248 24.1423C81.8268 24.5127 81.9278 24.9168 81.9278 25.3545V83.387C81.9278 85.4072 80.8672 86.4174 78.7459 86.4174H70.3617C68.3414 86.4174 67.3313 85.4072 67.3313 83.387V25.3545ZM67.3313 3.03042C67.3313 1.01014 68.3246 0 70.3112 0H78.7964C79.7392 0 80.4968 0.252535 81.0692 0.757604C81.6416 1.26267 81.9278 2.02028 81.9278 3.03042V10.556C81.9278 11.3304 81.6584 12.0712 81.1197 12.7783C80.581 13.4517 79.8233 13.7884 78.8469 13.7884H70.3617C68.3414 13.7884 67.3313 12.7109 67.3313 10.556V3.03042Z" fill="#181818"/>
<path d="M98.3039 25.2535C98.3039 24.277 98.6238 23.5362 99.2635 23.0312C99.937 22.5261 100.661 22.2736 101.435 22.2736H107.85C108.691 22.2736 109.331 22.5261 109.769 23.0312C110.207 23.5362 110.543 24.1592 110.779 24.8999C111.015 25.6407 111.183 26.4488 111.284 27.3243C111.385 28.166 111.503 28.9405 111.638 29.6476C112.379 28.6038 113.203 27.5936 114.113 26.6172C115.055 25.607 116.116 24.7147 117.295 23.9403C118.473 23.1658 119.803 22.5429 121.285 22.0715C122.766 21.6001 124.45 21.3644 126.335 21.3644C128.019 21.3644 129.534 21.4823 130.881 21.718C132.228 21.92 133.507 22.2567 134.719 22.7281C135.965 23.1659 137.177 23.7551 138.356 24.4959C139.534 25.203 140.797 26.0447 142.144 27.0212C142.716 27.3916 143.205 27.8125 143.609 28.2839C144.046 28.7553 144.265 29.3109 144.265 29.9506C144.232 30.22 144.181 30.5062 144.114 30.8092C144.046 31.1123 143.912 31.4153 143.71 31.7184L139.568 38.2843C139.299 38.621 138.979 38.8735 138.608 39.0419C138.272 39.1766 137.969 39.2439 137.699 39.2439C137.161 39.2439 136.639 39.1092 136.134 38.8398C135.022 38.2338 134.012 37.6613 133.103 37.1226C132.194 36.5839 131.302 36.1293 130.426 35.7589C129.551 35.3549 128.642 35.0518 127.699 34.8498C126.79 34.6141 125.763 34.4962 124.618 34.4962C121.621 34.4962 119.079 35.4559 116.991 37.3751C114.938 39.2944 113.557 41.9376 112.85 45.3047V83.387C112.85 85.4072 111.806 86.4174 109.718 86.4174H101.435C99.3477 86.4174 98.3039 85.4072 98.3039 83.387V25.2535Z" fill="#181818"/>
<path d="M147.992 26.3646C147.992 26.3646 147.976 26.2973 147.942 26.1626C147.908 26.0279 147.858 25.8596 147.79 25.6575C147.757 25.4555 147.723 25.2366 147.689 25.0009C147.656 24.7652 147.639 24.5632 147.639 24.3949C147.639 23.7551 147.858 23.25 148.296 22.8796C148.767 22.4756 149.457 22.2736 150.366 22.2736H159.458C160.266 22.2736 160.922 22.4756 161.427 22.8796C161.932 23.2837 162.336 23.8561 162.639 24.5969L163.549 26.8697C164.222 28.789 164.98 30.9439 165.821 33.3346C166.697 35.7252 167.589 38.2001 168.498 40.7591C169.407 43.2845 170.317 45.8098 171.226 48.3352C172.135 50.8268 172.993 53.1838 173.802 55.4061C174.61 57.5947 175.334 59.5477 175.973 61.2649C176.613 62.9485 177.118 64.2448 177.489 65.154C178.061 63.5041 178.718 61.6185 179.458 59.4972C180.233 57.3422 181.058 55.0694 181.933 52.6787C182.809 50.2544 183.701 47.7627 184.61 45.2037C185.519 42.6447 186.411 40.1362 187.287 37.6782C188.162 35.2202 188.987 32.88 189.762 30.6577C190.57 28.4017 191.294 26.3646 191.934 24.5464C192.27 23.7383 192.674 23.1659 193.146 22.8291C193.651 22.4588 194.324 22.2736 195.166 22.2736H204.611C205.655 22.2736 206.362 22.4419 206.732 22.7786C207.136 23.1153 207.338 23.5531 207.338 24.0918C207.338 24.3612 207.288 24.6979 207.187 25.1019C207.119 25.506 207.052 25.809 206.985 26.0111L182.943 84.3971C182.674 84.8685 182.337 85.3231 181.933 85.7608C181.563 86.1985 180.856 86.4174 179.812 86.4174H175.165C173.953 86.4174 173.128 86.2154 172.69 85.8113C172.286 85.3736 171.983 84.9022 171.781 84.3971L147.992 26.3646Z" fill="#181818"/>
<path d="M280.089 83.4375C280.089 84.0436 279.955 84.5486 279.685 84.9527C279.45 85.3231 279.13 85.6261 278.726 85.8618C278.322 86.0638 277.85 86.2154 277.312 86.3164C276.806 86.3837 276.268 86.4174 275.695 86.4174H269.382C268.305 86.4174 267.547 86.1312 267.109 85.5588C266.705 84.9864 266.402 84.2624 266.2 83.387L265.897 79.0939C264.719 80.2724 263.405 81.3835 261.957 82.4273C260.543 83.4375 259.011 84.3298 257.361 85.1042C255.711 85.845 253.961 86.4174 252.109 86.8214C250.257 87.2592 248.354 87.478 246.401 87.478C243.371 87.478 240.442 87.0908 237.613 86.3164C234.818 85.5083 232.192 84.3971 229.734 82.9829C227.276 81.535 225.037 79.801 223.017 77.7807C221.03 75.7604 219.313 73.5213 217.865 71.0633C216.451 68.6053 215.34 65.9621 214.531 63.1337C213.757 60.3053 213.37 57.3591 213.37 54.295C213.37 51.2309 213.757 48.2846 214.531 45.4563C215.34 42.6279 216.451 39.9847 217.865 37.5267C219.313 35.0687 221.03 32.8464 223.017 30.8597C225.037 28.8395 227.276 27.1222 229.734 25.708C232.192 24.2602 234.818 23.149 237.613 22.3746C240.442 21.5665 243.371 21.1624 246.401 21.1624C248.556 21.1624 250.61 21.3981 252.563 21.8695C254.516 22.3072 256.334 22.947 258.018 23.7888C259.735 24.5969 261.318 25.5902 262.766 26.7687C264.213 27.9135 265.527 29.1762 266.705 30.5567L267.412 25.1525C267.581 24.5464 267.732 24.0581 267.867 23.6878C268.035 23.2837 268.22 22.9638 268.422 22.7281C268.658 22.4924 268.944 22.3409 269.281 22.2736C269.618 22.1726 270.039 22.122 270.544 22.122H275.594C276.133 22.122 276.672 22.1726 277.211 22.2736C277.749 22.3746 278.238 22.5429 278.675 22.7786C279.113 22.9807 279.45 23.2837 279.685 23.6878C279.955 24.0581 280.089 24.5295 280.089 25.1019V83.4375ZM227.562 54.295C227.562 56.9887 228.034 59.5477 228.976 61.972C229.919 64.3627 231.232 66.4671 232.916 68.2854C234.6 70.1036 236.569 71.5515 238.825 72.629C241.115 73.6728 243.607 74.1947 246.3 74.1947C249.028 74.1947 251.57 73.6728 253.927 72.629C256.318 71.5515 258.388 70.1036 260.139 68.2854C261.89 66.4671 263.271 64.3627 264.281 61.972C265.291 59.5477 265.796 56.9887 265.796 54.295C265.796 51.6349 265.291 49.1096 264.281 46.7189C263.271 44.2946 261.89 42.1733 260.139 40.355C258.388 38.5368 256.318 37.0889 253.927 36.0115C251.57 34.934 249.028 34.3952 246.3 34.3952C243.607 34.3952 241.115 34.934 238.825 36.0115C236.569 37.0889 234.6 38.5368 232.916 40.355C231.232 42.1733 229.919 44.2946 228.976 46.7189C228.034 49.1096 227.562 51.6349 227.562 54.295Z" fill="#181818"/>
<path d="M293.33 25.2535C293.33 24.7821 293.532 24.277 293.936 23.7383C294.34 23.1995 294.728 22.8628 295.098 22.7281C295.367 22.4588 295.771 22.3241 296.31 22.3241C296.849 22.2904 297.354 22.2736 297.825 22.2736H302.927C303.903 22.2736 304.627 22.5934 305.098 23.2332C305.57 23.8729 305.89 24.58 306.058 25.3545L306.613 30.7082C307.388 29.5634 308.331 28.4354 309.442 27.3243C310.587 26.2131 311.934 25.2198 313.482 24.3443C315.031 23.4689 316.799 22.7618 318.786 22.2231C320.772 21.6843 323.011 21.4149 325.503 21.4149C329.476 21.4149 333.012 22.1389 336.11 23.5867C339.207 25.0009 341.817 26.9539 343.938 29.4456C346.059 31.9372 347.659 34.8666 348.736 38.2338C349.847 41.6009 350.403 45.2205 350.403 49.0927V82.7809C350.403 83.993 350.117 84.9022 349.544 85.5083C348.972 86.1143 348.147 86.4174 347.07 86.4174H339.393C338.046 86.4174 337.137 86.1648 336.665 85.6598C336.227 85.1547 336.009 84.2624 336.009 82.9829V49.3453C336.009 47.5607 335.706 45.8266 335.099 44.1431C334.493 42.4258 333.601 40.8938 332.423 39.5469C331.278 38.2001 329.847 37.1226 328.129 36.3145C326.412 35.5064 324.426 35.1023 322.17 35.1023C320.621 35.1023 319.005 35.4222 317.321 36.062C315.671 36.668 314.156 37.5435 312.775 38.6883C311.395 39.8331 310.25 41.2305 309.341 42.8804C308.432 44.4966 307.96 46.3317 307.927 48.3857V81.1142C307.927 81.7539 307.893 82.3937 307.826 83.0334C307.758 83.6732 307.607 84.2456 307.371 84.7507C307.169 85.2557 306.866 85.6598 306.462 85.9628C306.058 86.2659 305.536 86.4174 304.896 86.4174H296.563C295.451 86.4174 294.626 86.1648 294.088 85.6598C293.583 85.121 293.33 84.3634 293.33 83.387V25.2535Z" fill="#181818"/>
<path d="M359.614 54.4465C359.614 51.3824 360.001 48.4362 360.776 45.6078C361.584 42.7457 362.712 40.0857 364.16 37.6277C365.608 35.1697 367.342 32.9474 369.362 30.9608C371.382 28.9405 373.622 27.2232 376.08 25.809C378.538 24.3612 381.164 23.25 383.959 22.4756C386.787 21.6675 389.733 21.2634 392.797 21.2634C395.828 21.2634 398.757 21.6675 401.586 22.4756C404.414 23.25 407.04 24.3612 409.465 25.809C411.923 27.2232 414.162 28.9405 416.182 30.9608C418.202 32.9474 419.936 35.1697 421.384 37.6277C422.832 40.0857 423.943 42.7457 424.718 45.6078C425.526 48.4362 425.93 51.3824 425.93 54.4465C425.93 57.5106 425.526 60.4568 424.718 63.2852C423.943 66.1136 422.832 68.7568 421.384 71.2148C419.936 73.6391 418.202 75.8614 416.182 77.8817C414.162 79.902 411.923 81.6361 409.465 83.0839C407.04 84.4981 404.414 85.6093 401.586 86.4174C398.757 87.1918 395.828 87.579 392.797 87.579C389.733 87.579 386.787 87.1918 383.959 86.4174C381.164 85.6093 378.538 84.4981 376.08 83.0839C373.622 81.6361 371.382 79.902 369.362 77.8817C367.342 75.8614 365.608 73.6391 364.16 71.2148C362.712 68.7568 361.584 66.1136 360.776 63.2852C360.001 60.4568 359.614 57.5106 359.614 54.4465ZM373.857 54.4465C373.857 57.1402 374.329 59.6992 375.271 62.1235C376.214 64.5142 377.527 66.6018 379.211 68.3864C380.894 70.171 382.881 71.5852 385.171 72.629C387.494 73.6728 390.019 74.1947 392.747 74.1947C395.407 74.1947 397.865 73.6728 400.121 72.629C402.41 71.5852 404.38 70.171 406.03 68.3864C407.68 66.6018 408.96 64.5142 409.869 62.1235C410.811 59.6992 411.283 57.1402 411.283 54.4465C411.283 51.7865 410.811 49.2443 409.869 46.8199C408.96 44.3956 407.68 42.2743 406.03 40.4561C404.38 38.6041 402.41 37.1394 400.121 36.062C397.865 34.9508 395.407 34.3952 392.747 34.3952C390.019 34.3952 387.494 34.9508 385.171 36.062C382.881 37.1394 380.894 38.6041 379.211 40.4561C377.527 42.2743 376.214 44.3956 375.271 46.8199C374.329 49.2443 373.857 51.7865 373.857 54.4465Z" fill="#181818"/>
</svg>
